<?xml version="1.0" standalone="no"?>
<!DOCTYPE svg PUBLIC "-//W3C//DTD SVG 20010904//EN"
 "http://www.w3.org/TR/2001/REC-SVG-20010904/DTD/svg10.dtd">
<svg version="1.0" xmlns="http://www.w3.org/2000/svg"
 width="400.000000pt" height="400.000000pt" viewBox="0 0 400.000000 400.000000"
 preserveAspectRatio="xMidYMid meet">
<metadata>
Created by potrace 1.11, written by Peter Selinger 2001-2013
</metadata>
<g transform="translate(0.000000,400.000000) scale(0.100000,-0.100000)"
fill="#000000" stroke="none">
<path d="M1978 3445 c-2 -2 -43 -6 -92 -9 -49 -4 -91 -8 -95 -10 -3 -2 -24 -7
-46 -10 -61 -10 -146 -33 -219 -61 -67 -25 -247 -112 -256 -124 -3 -3 -30 -23
-60 -44 -307 -208 -519 -558 -576 -952 -18 -127 -5 -381 27 -490 6 -22 12 -49
14 -60 5 -35 56 -167 98 -250 96 -194 268 -394 439 -512 26 -18 52 -33 58 -33
5 0 10 -4 10 -10 0 -5 6 -10 14 -10 8 0 16 -3 18 -7 6 -14 171 -91 250 -117
81 -27 182 -51 258 -63 25 -3 389 -8 810 -10 l766 -4 -1 753 c-1 414 -4 767
-8 783 -3 17 -9 50 -12 75 -50 367 -292 735 -623 946 -129 83 -353 173 -466
188 -27 4 -53 9 -57 12 -4 2 -49 7 -101 10 -51 3 -105 7 -120 8 -15 2 -29 2
-30 1z"/>
</g>
</svg>
