<?xml version="1.0" standalone="no"?>
<!DOCTYPE svg PUBLIC "-//W3C//DTD SVG 20010904//EN"
 "http://www.w3.org/TR/2001/REC-SVG-20010904/DTD/svg10.dtd">
<svg version="1.0" xmlns="http://www.w3.org/2000/svg"
 width="226.000000pt" height="226.000000pt" viewBox="0 0 226.000000 226.000000"
 preserveAspectRatio="xMidYMid meet">
<metadata>
Created by potrace 1.11, written by Peter Selinger 2001-2013
</metadata>
<g transform="translate(0.000000,226.000000) scale(0.100000,-0.100000)"
fill="#000000" stroke="none">
<path d="M957 2130 c-27 -5 -51 -10 -53 -13 -2 -2 -1 -81 3 -176 6 -168 7
-171 24 -145 32 49 74 67 166 72 134 7 208 -33 233 -129 21 -79 -16 -144 -105
-185 -93 -44 -200 -27 -272 42 l-43 41 0 -109 c0 -59 2 -108 3 -108 2 0 30 9
62 20 37 13 84 20 131 20 l73 0 296 227 296 227 -28 22 c-82 66 -238 140 -371
175 -87 23 -331 34 -415 19z"/>
<path d="M780 2086 c-186 -66 -372 -198 -484 -346 -47 -61 -106 -156 -106
-169 0 -4 66 -60 148 -124 81 -63 233 -183 337 -266 l190 -151 3 67 c2 39 -1
69 -8 73 -6 3 -16 46 -22 95 l-12 88 25 21 26 22 7 357 7 357 -23 -1 c-13 0
-52 -11 -88 -23z"/>
<path d="M1500 1679 c-151 -122 -276 -224 -277 -228 -1 -3 12 -15 30 -26 18
-11 43 -42 57 -69 l25 -49 410 -101 410 -102 3 60 c6 109 -51 308 -125 440
-62 110 -219 296 -250 296 -5 0 -132 -100 -283 -221z"/>
<path d="M142 1466 c-64 -175 -83 -349 -58 -514 17 -111 73 -292 90 -292 6 1
182 40 391 89 l380 88 3 40 3 41 -283 233 c-156 129 -328 271 -382 316 -54 46
-102 83 -106 83 -5 0 -22 -38 -38 -84z"/>
<path d="M1336 1248 c5 -19 236 -524 401 -880 20 -43 41 -78 46 -78 18 0 156
151 202 220 98 148 163 331 172 487 6 91 5 92 -18 97 -13 3 -125 28 -249 56
-124 27 -295 65 -380 85 -186 42 -183 42 -174 13z"/>
<path d="M1326 944 c-31 -63 -56 -119 -56 -124 0 -4 -11 -42 -25 -85 -14 -43
-24 -79 -22 -82 3 -2 33 7 68 20 l64 24 23 -28 c26 -32 52 -90 52 -117 0 -44
-123 -150 -202 -173 -38 -11 -137 -14 -167 -4 -18 5 -30 -12 -96 -146 -42 -83
-75 -153 -73 -154 8 -8 167 -25 231 -25 132 0 291 34 423 90 68 29 214 122
214 136 0 7 -38 88 -84 182 -46 93 -98 198 -114 233 -17 35 -64 133 -105 216
l-75 153 -56 -116z"/>
<path d="M810 779 c-47 -10 -128 -28 -180 -38 -52 -11 -171 -36 -264 -55 -93
-20 -173 -36 -178 -36 -18 0 -5 -30 50 -115 101 -155 207 -256 369 -350 68
-39 232 -105 262 -105 4 0 40 69 80 153 l73 154 -30 30 c-42 42 -52 88 -52
246 0 159 13 148 -130 116z"/>
</g>
</svg>
