<?xml version="1.0" standalone="no"?>
<!DOCTYPE svg PUBLIC "-//W3C//DTD SVG 20010904//EN"
 "http://www.w3.org/TR/2001/REC-SVG-20010904/DTD/svg10.dtd">
<svg version="1.0" xmlns="http://www.w3.org/2000/svg"
 width="512.000000pt" height="512.000000pt" viewBox="0 0 512.000000 512.000000"
 preserveAspectRatio="xMidYMid meet">
<metadata>
Created by potrace 1.11, written by Peter Selinger 2001-2013
</metadata>
<g transform="translate(0.000000,512.000000) scale(0.100000,-0.100000)"
fill="#000000" stroke="none">
<path d="M1080 5115 c-8 -2 -49 -9 -90 -15 -232 -38 -459 -157 -636 -334 -168
-168 -269 -352 -331 -603 -15 -62 -17 -198 -20 -1528 -4 -1517 -3 -1574 38
-1732 123 -482 533 -836 1034 -893 122 -13 2848 -13 2970 0 501 57 911 410
1034 893 41 158 42 215 38 1732 -4 1600 1 1484 -62 1671 -131 390 -457 683
-875 787 -84 21 -94 21 -1585 23 -825 1 -1507 1 -1515 -1z m857 -1599 c122
-33 259 -117 333 -206 23 -27 45 -48 49 -46 4 3 47 10 94 16 156 19 337 -19
472 -101 80 -48 195 -157 244 -232 l41 -63 77 13 c173 31 356 -16 510 -130
110 -82 203 -224 239 -367 22 -86 22 -236 -1 -320 -49 -187 -181 -349 -351
-431 -147 -71 -124 -70 -1078 -67 l-853 3 -85 42 c-132 66 -227 182 -257 314
-24 102 -5 253 43 338 13 23 11 26 -48 71 -114 87 -197 212 -236 354 -29 103
-25 276 8 376 78 237 289 412 547 454 49 7 196 -3 252 -18z"/>
</g>
</svg>
